<svg id="Capa_1" data-name="Capa 1" xmlns="http://www.w3.org/2000/svg" viewBox="0 0 294.23 412.73"><defs><style>.cls-1{fill:#a8ce54;}.cls-2{fill:#fefefe;}</style></defs><path class="cls-1" d="M957,571a14.75,14.75,0,0,1-4.87,4.88c-3.54,2.33-6.95,5.33-8,9.22-1.47,5.63-3.27,9.46-10,8a1.58,1.58,0,0,0-1.77,1.42c0,1.14,1.15,1.47,2.22,1.46,5.16,0,10.33.16,15.47-.12a179.79,179.79,0,0,0,29.8-4c6-1.35,11.73-3.67,17.76-5.17a9.29,9.29,0,0,1-2,1.32c-9.5,3.25-12.07,11.31-13.69,19.9-2.83,15-.29,30.13.38,45.1.53,12.1,4.69,24,7.12,36.06q1.94,9.63,3.42,19.35c.75,5,8.56,13.82,13.06,14.41,2.11.27,2-1.22,2-2.56v-18.2c5,3.29,6.22,7.92,7,12.76.18,1.14,0,2.33.07,3.49a3.26,3.26,0,0,0,3.07,3.31c1.56.06,1.74-1.56,1.95-3a21.12,21.12,0,0,1,1.53-3.88l3.79,6.17c.65-4.56,1.21-8,1.58-11.37.21-1.82.25-4.14,2.26-4.3s1.91,2.49,2.3,3.87c.62,2.19.48,4.59.69,7.25,3.13-1.74,2.92-5.64,5.65-8v15.54c3,0,5.74-.16,8.43,0,3.77.27,5.39,2.88,6.9,6.09,1.6,3.41,0,5.15-2.07,7.29-3,3.11-8.33,4-9.13,9.36,0,.19-1.55.2-2.37.2-3.68,0-7,.21-9.4,4a5.52,5.52,0,0,1-5.82,1.89c-4.93-1.54-9.89-.61-14.82-.8-3.15-.12-6.3,0-9.22-1.39a5.8,5.8,0,0,0-4.28-.25,20.37,20.37,0,0,1-10.73-.17,34.85,34.85,0,0,0-13.61-.54c-11.53,1.4-23-.16-34.38-2.73-1.85-.42-1.92-1.83-2.5-3.24-3.12-7.58-1.7-15.33-.68-22.93.94-7,2.05-13.93,2.43-21.09.62,2.31,1.23,4.62,1.91,7.17,4-1,3.18-5.6,5.48-7.61,1.15.29,1,1.08,1,1.67,0,12.25,1,9,11.71,13.1,2.66,1,3.24-.61,3-2.61q-2.7-25.26-4.91-50.57c-.5-5.7-.85-11.46-1.69-17.16-1.52-10.29,3.12-19.67,5.35-29.38a18.53,18.53,0,0,0-2-13.29c-1.57-3-4.74-2.82-7.25-2.86-14.15-.21-28.35-.72-42.45.13-8.61.52-16.51,5.41-24.94,7.19-13.15,2.77-21.24,11.43-28.84,21.39-5.8,7.59-12.15,14.77-18.34,22.05-2.67,3.15-5.86,4.16-9.59,1.61a9.55,9.55,0,0,0-2.66-1.31c-7.4-2.16-7.82-3.49-3.24-9.72,4.38-6,8.67-12,13-18,.74-1,1.32-2.21,2-3.41-5.68-.76-10.91.9-16.25,1-1.78,0-3.6-.37-4.46-1.67-1-1.55.42-3.18,1.36-4.45,6.94-9.42,16.13-16.59,24.69-24.38,1.46-1.33,3-2.61,4.49-3.91,1.92-1.64,2.79-4.13,6.78-2,3.26,1.74,7.51-1.33,10.74-3.63,3-2.15,5.82-4.68,9.5-6.54q-2.64,6.15-5.26,12.3c-.77,1.8-1.63,3.58-2.26,5.44a9.81,9.81,0,0,0,0,5.85c.86,3.18,4,5.06,5.94,4.46,3-.91,2.34-5.35,1.06-6.82-1.76-2-.74-2.57.15-3.93a177.33,177.33,0,0,0,11.77-20.52c.44-.91,1.09-1.83.2-2.57-.29-.25-1.39.49-3.19,1.2,3-4.85,5.67-8.9,8.15-13,.5-.83,1.65-1.76.63-3s-2-.09-3.06.17c-5.52,1.36-9,5.73-13.41,8.9,10.7-17.85,26.77-30.88,40.52-46,1,.69.36,1.38.19,2.11-.42,1.75-3,4-.39,5.14,1.93.84,4.18-1.41,5.42-3.22C920.82,514,923.88,509,927,504l-.08.07c1.66.72,4-2.06,4.72,0s-.42,4.44-.7,6.7c-.09.71-.58.81-1,.57-3.31-1.93-4.73,1-6.35,2.68-4.73,4.94-7.79,10.73-7.52,18.24,3-3.76,6-7.51,8.91-11.29,2.63-3.37,5.17-6.82,7.83-10.17.51-.65,1.08-1.88,2.31-1,.77.57.64,1.28.4,2.19-.59,2.17-.92,4.41-1.61,7.92,4.47-3.84,8.08-7,11.76-10.06,1.13-.95,2.54-3.8,3.44.34.51,2.31,2.29,1.42,3.47.54,3-2.24,4.83-5.42,6.36-8.73,4.26-9.2,10.18-17.26,16.46-25.14,2-2.57,4.93-3,7.77-5.2-.2,2.45-.35,4.24-.57,6.9,6.61-6.82,14.65-6.65,22.73-6.55,7.38.09,14.74-2.32,22.13,0,3.43,1.08,7.36,1.25,10.28,3.09,5,3.15,9.88,1.33,14.79.81,4.49-.48,7.14-4.13,7.32-9.62.13-4.11-.63-8.26-.76-12.31-.65-20.64-1.79-41.68,7.15-60.89,3.16-6.8,3.13-13,3.87-19.76.58-5.3.67-10.55.74-15.83,0-3.25,1-6,4-7.35,4.48-2,2.8-3.31-.25-4.74-1-.48-2-1.05-3.15-1.65,7.19-1.36,13,4.41,13.42,12.79.2,4.6-.53,9.2.75,13.84.61,2.19,2,3.73,2.73,5.7.53,1.52,5.09,1.8.93,5.16-1.64,1.33,1.77,5.39,5.12,6.35,1.49-1.89-.4-3.34-.64-5,3.74.92,13.11,10.27,13.43,13.46.19,1.84-.83,1.9-2.41,1.54-4.46-1-9-1.67-13.45-2.77-10.91-2.71-19.41,3.83-19.5,15-.18,23.75-.33,47.55-1.35,71.25-1,22.13-5.1,44-18.55,62.9-4.67,6.54-10.56,11.83-16.42,17.87-.93-3.19-2-6-2.53-8.89-1.31-6.9-5.47-11.28-11.59-14.21a4.17,4.17,0,0,1-2.54-4c0-4.12-2-7.33-4.16-10.77-2.6-4.11-4.83-2.91-6.76-.38-6.11,8-13.72,14.3-21.55,20.43-4.85,3.8-6.84,10.13-11.84,13.75-6,4.33-11.09,9.73-17.64,13.24.25-3.69,3.67-7.44.37-11a18.11,18.11,0,0,1-4.32-9.24c-.25-1.23-.56-2.45-1.89-2.52s-1.76,1.51-2,2.48A113.74,113.74,0,0,1,943,570.41c-1.36,3.4,0,3.37,2.92,3.73C950.25,574.68,952.93,570.47,957,571Zm-56.58-35.5c-4.4,3.94-10.05,6.71-12.7,13.32,7.09-2.25,10.74-6.95,13.36-12.72.7-.3,1.14-1,.59-1.46S900.84,535.09,900.46,535.47ZM972,619.93c-.72-1.91,1.66-5.94-1.77-6.4-2.28-.3-2.69,3.89-3.67,6.22a3.75,3.75,0,0,0-.38.91c-1.15,9.92-2.68,19.72-2.5,29.84.27,15.76,1.7,31.37,3.43,47,.75,6.73,2.9,13.18,8.06,18.11,1.79,1.71,3.88,4.24,6.24,2.91a7.67,7.67,0,0,0,3.5-8.2c-3.69-19.49-7.62-38.94-11.3-58.43-1.54-8.14-4.83-16.19-2.46-24.68A24.54,24.54,0,0,0,972,619.93Zm-60.87-28.45c8.08-2.72,9.5-5,8.06-12.66a33.4,33.4,0,0,1-.15-3.48,75.83,75.83,0,0,1,6-35.7c1.06-2.55,3.39-7.26,1.25-7.91-3.58-1.08-6.09,3-7.74,6.3-1.36,2.7-2.29,5.61-3.52,8.72-1.64-1.86-.26-4-2.23-5.89-1.33,5.79-3.24,10.94-3.83,16.72,3-.78,2.88-3.58,5-5.13a33.26,33.26,0,0,1,0,5.6c-.93,5.15-2,10.28-3.22,15.37-.36,1.47-1,3,1.2,2.45,3.78-.92,1.91,1.6,1.7,2.66C912.77,582.8,910.94,586.89,911.11,591.48ZM899.47,560.3c-6,5.83-6.25,13.79-8.39,21-1,3.5-.78,7.31-5.11,9.34-3.05,1.43-1.81,3.84.7,5.1,4.34,2.17,8.58,1.29,12.69-.88,1.84-1,1.29-1.94.09-3-2.31-1.93-2-4.34-1.05-6.72C901.53,577.05,899.68,568.7,899.47,560.3Zm38.22,11.26c-.56-6.38-1.1-12.75-1.69-19.12-.1-1.07.59-2.64-.76-3.05-1.72-.52-2,1.29-2.56,2.39a16.94,16.94,0,0,0-1.76,4.54c-1.6,8.34-3.16,16.7-5.26,24.91-.89,3.46.86,2.93,2.64,2.55C932.18,582.94,937.86,575.57,937.69,571.56Zm-45.77-5.83c6-5.4,9.24-12.14,12.05-19.08,1.13-2.81.23-4.13-1.72-3.17-3,1.51-7,2.11-7.46,6.84a11.33,11.33,0,0,1-2.52,5.77C889.58,559.34,890.93,562.32,891.92,565.73Zm-54,45.18c7.09-1.36,10.6-6.6,9.59-13.51C842.94,600.8,840,605.18,837.91,610.91Zm129.08-6c4.56.59,6.11-1.14,6-4.62,0-1.59.38-3.42-2.28-3.3-3.29.15-6.76,3.19-6.7,5.93C964.08,606,966.43,604.76,967,604.9Z" transform="translate(-813.07 -340.24)"/><path class="cls-1" d="M1016.9,355c-9.1,1.26-18.16,2.9-27.3,3.66a57.11,57.11,0,0,1-33.34-6.91c19.53,5.54,38.86,3.79,59.17-1.32-11.89-3.18-23.41-3.48-34.26-6.59.26-2.1,1.49-1.7,2.37-1.72,10.1-.27,20,1.73,30,2.63,7.22.65,14.31,2.49,21.79-1.06,8.38-4,17.75-4.26,26.92-2.11-4.55,2.18-9.53,1.41-14.4,1.51-7.75.15-18.65,7.27-21.95,14.88,8.55-2,16.76-3.63,24.75-6,5.83-1.71,9.56,1.8,13.13,4.73s2.61,7.52,1.48,11.59a27,27,0,0,1-2,5c-2,3.79-2.58,7.42-1,11.72,2.21,6-.72,11.4-3.32,16.9,2.26-7.14-1.28-12.41-4.87-17.79-1-1.54-3.23-4.47,1.58-4.29,1.24.05,1.22-.85,1.25-1.67,0-1-.06-1.89-1.35-2.29-7.83-2.45-13.76-8.23-20.88-12a5.25,5.25,0,0,0-3.29-.87c-3.41.57-6.05-.35-7.26-4.55-2.88,4.85-2.3,9.9-4.87,14.21v-12c-17.4,10.23-35.1,15.39-55.11,12.9,4.51-2.43,9.09-1.7,13.31-2.43,10.51-1.81,21.2-2.73,30.53-8.62,3.3-2.09,6.93-3.76,9.5-6.86.53-.54,2.14-.25,1.67-1.32C1018.87,353.73,1017.47,354,1016.9,355Z" transform="translate(-813.07 -340.24)"/><path class="cls-1" d="M917.61,728.39a16.77,16.77,0,0,1,1.46,7.7c-.08,2.58.44,5,3.48,5.8,1,.26,2.21.68,1.94,1.72a2.87,2.87,0,0,1-2.49,2.18c-5.82,0-11.65.13-17.45-.25a3.54,3.54,0,0,1-3.52-4c.32-2.83-1.26-6.54,2.26-8,2.88-1.22,6.16-3.74,9.44-.4,1.17,1.18,1.7.64,2.55-.65S915.47,729.29,917.61,728.39Z" transform="translate(-813.07 -340.24)"/><path class="cls-1" d="M968.15,472.67c.83,2.74-1,3.46-2,4.67s-2.26,2.13-1.44,4.59c1.16,3.51-2.84,7-8.14,7s-7.79,2-8.81,7.39c-.7,3.68-4.7,5.28-8.59,6.12C944.06,487.79,958,482,968.15,472.67Z" transform="translate(-813.07 -340.24)"/><path class="cls-1" d="M969.53,463.61c-8.58,10-18.9,18.12-29.3,26.2.4-2.46,2.24-3.81,3.8-5.26q11.26-10.43,22.69-20.67a7.52,7.52,0,0,1,2.2-.93A4.77,4.77,0,0,0,969.53,463.61Z" transform="translate(-813.07 -340.24)"/><path class="cls-1" d="M1018.37,399c-.39,8.79-2.1,17-9,23.1C1012.84,414.59,1016.46,407.11,1018.37,399Z" transform="translate(-813.07 -340.24)"/><path class="cls-1" d="M968.92,463c.38-.7,1.06-1.72,1.67-1.09.76.8-.44,1.29-1.06,1.75A4.77,4.77,0,0,1,968.92,463Z" transform="translate(-813.07 -340.24)"/><path class="cls-1" d="M970.51,471.57c-.18.2-.32.49-.54.55s-.43-.15-.66-.23c.14-.22.26-.59.44-.62S970.24,471.45,970.51,471.57Z" transform="translate(-813.07 -340.24)"/><path class="cls-2" d="M972,619.93a24.54,24.54,0,0,1-.85,7.26c-2.37,8.49.92,16.54,2.46,24.68,3.68,19.49,7.61,38.94,11.3,58.43a7.67,7.67,0,0,1-3.5,8.2c-2.36,1.33-4.45-1.2-6.24-2.91-5.16-4.93-7.31-11.38-8.06-18.11-1.73-15.61-3.16-31.22-3.43-47-.18-10.12,1.35-19.92,2.5-29.84a3.75,3.75,0,0,1,.38-.91c1-2.33,1.39-6.52,3.67-6.22C973.64,614,971.26,618,972,619.93Z" transform="translate(-813.07 -340.24)"/><path class="cls-2" d="M911.11,591.48c-.17-4.59,1.66-8.68,2.53-13,.21-1.06,2.08-3.58-1.7-2.66-2.2.53-1.56-1-1.2-2.45C912,568.33,913,563.2,914,558.05a33.26,33.26,0,0,0,0-5.6c-2.14,1.55-2,4.35-5,5.13.59-5.78,2.5-10.93,3.83-16.72,2,1.94.59,4,2.23,5.89,1.23-3.11,2.16-6,3.52-8.72,1.65-3.26,4.16-7.38,7.74-6.3,2.14.65-.19,5.36-1.25,7.91a75.83,75.83,0,0,0-6,35.7,33.4,33.4,0,0,0,.15,3.48C920.61,586.45,919.19,588.76,911.11,591.48Z" transform="translate(-813.07 -340.24)"/><path class="cls-2" d="M899.47,560.3c.21,8.4,2.06,16.75-1.07,24.89-.92,2.38-1.26,4.79,1.05,6.72,1.2,1,1.75,2-.09,3-4.11,2.17-8.35,3-12.69.88-2.51-1.26-3.75-3.67-.7-5.1,4.33-2,4.07-5.84,5.11-9.34C893.22,574.09,893.47,566.13,899.47,560.3Z" transform="translate(-813.07 -340.24)"/><path class="cls-2" d="M937.69,571.56c.17,4-5.51,11.38-9.39,12.22-1.78.38-3.53.91-2.64-2.55,2.1-8.21,3.66-16.57,5.26-24.91a16.94,16.94,0,0,1,1.76-4.54c.56-1.1.84-2.91,2.56-2.39,1.35.41.66,2,.76,3.05C936.59,558.81,937.13,565.18,937.69,571.56Z" transform="translate(-813.07 -340.24)"/><path class="cls-2" d="M957,571c-4.11-.5-6.79,3.71-11.15,3.17-2.9-.36-4.28-.33-2.92-3.73a113.74,113.74,0,0,0,6.22-19.66c.2-1,.49-2.55,2-2.48s1.64,1.29,1.89,2.52a18.11,18.11,0,0,0,4.32,9.24c3.3,3.56-.12,7.31-.37,11Z" transform="translate(-813.07 -340.24)"/><path class="cls-2" d="M891.92,565.73c-1-3.41-2.34-6.39.35-9.64a11.33,11.33,0,0,0,2.52-5.77c.45-4.73,4.41-5.33,7.46-6.84,2-1,2.85.36,1.72,3.17C901.16,553.59,898,560.33,891.92,565.73Z" transform="translate(-813.07 -340.24)"/><path class="cls-2" d="M837.91,610.91c2.1-5.73,5-10.11,9.59-13.51C848.51,604.31,845,609.55,837.91,610.91Z" transform="translate(-813.07 -340.24)"/><path class="cls-2" d="M967,604.9c-.56-.14-2.91,1.09-3-2-.06-2.74,3.41-5.78,6.7-5.93,2.66-.12,2.23,1.71,2.28,3.3C973.1,603.76,971.55,605.49,967,604.9Z" transform="translate(-813.07 -340.24)"/><path class="cls-2" d="M901.12,536.07c-2.62,5.77-6.27,10.47-13.36,12.72,2.65-6.61,8.3-9.38,12.7-13.32A4.7,4.7,0,0,0,901.12,536.07Z" transform="translate(-813.07 -340.24)"/><path class="cls-2" d="M900.46,535.47c.38-.38.56-1.43,1.25-.86s.11,1.16-.59,1.46A4.7,4.7,0,0,1,900.46,535.47Z" transform="translate(-813.07 -340.24)"/><path class="cls-2" d="M1016.9,355c.57-1,2-1.26,2.26-.61.47,1.07-1.14.78-1.67,1.32A6.73,6.73,0,0,1,1016.9,355Z" transform="translate(-813.07 -340.24)"/></svg>